# xmcd CD database file
#
# Track frame offsets:
#	150
#	14067
#	25837
#	38595
#	52322
#	65527
#	80027
#	94392
#
# Disc length: 1428 seconds
#
# Revision: 3
# Processed by: cddbd v1.5.2PL0 Copyright (c) Steve Scherf et al.
# Submitted via: CDex 1.51
#
DISCID=6d059208
DTITLE=Sweethearts Of The Rodeo - Sweethearts Of The Rodeo
DYEAR=1986
DGENRE=Country
TTITLE0=Midnight Girl-Sunset Town
TTITLE1=Hey Doll Baby
TTITLE2=Since I Found You
TTITLE3=Gotta Get Away
TTITLE4=Chains Of Gold
TTITLE5=Chosen Few
TTITLE6=Everywhere I Turn
TTITLE7=I Can't Resist
EXTD=YEAR: 1986
EXTT0=
EXTT1=
EXTT2=
EXTT3=
EXTT4=
EXTT5=
EXTT6=
EXTT7=
PLAYORDER=
